<svg width="360" height="118" viewBox="0 0 360 118" fill="none" xmlns="http://www.w3.org/2000/svg">
<rect width="360" height="118" fill="#171D21"/>
<path d="M167.048 34.9641C163.733 34.2703 161.594 32.1246 160.314 28.2161L160.244 28L160.174 28.2161C158.896 32.1246 156.755 34.2684 153.44 34.9641L153.092 35.0361L153.44 35.1081C156.755 35.8038 158.894 37.9476 160.174 41.8561L160.244 42.0722L160.314 41.8561C161.592 37.9476 163.731 35.8038 167.048 35.1081L167.397 35.0361L167.048 34.9641Z" fill="#FFCD32"/>
<path d="M238.266 34.9641C234.951 34.2703 232.812 32.1246 231.532 28.2161L231.462 28L231.392 28.2161C230.114 32.1246 227.973 34.2684 224.658 34.9641L224.31 35.0361L224.658 35.1081C227.973 35.8038 230.112 37.9476 231.392 41.8561L231.462 42.0722L231.532 41.8561C232.81 37.9476 234.949 35.8038 238.266 35.1081L238.614 35.0361L238.266 34.9641Z" fill="#449947"/>
<path d="M247.752 29.6017C241.751 29.6017 236.886 34.4732 236.886 40.4819V51.3431C236.886 54.338 234.451 56.7757 231.46 56.7757C228.468 56.7757 226.034 54.338 226.034 51.3431V40.4819C226.034 34.4732 221.168 29.6017 215.167 29.6017V51.3564C215.175 60.3582 222.465 67.6653 231.46 67.6653C234.451 67.6653 236.878 70.0935 236.878 73.0903C236.878 76.0871 234.453 78.5152 231.46 78.5152C228.467 78.5152 226.057 76.0984 226.043 73.1149H215.186C215.199 82.1034 222.48 89.3859 231.46 89.3859C240.439 89.3859 247.735 82.0901 247.735 73.0903C247.735 68.9164 246.166 65.1121 243.589 62.229C246.173 59.3441 247.749 55.5341 247.75 51.3564V29.6017H247.752Z" fill="#E7DED3"/>
<path d="M176.537 29.6017C170.536 29.6017 165.671 34.4732 165.671 40.4819V51.3431C165.671 54.338 163.236 56.7757 160.245 56.7757C157.254 56.7757 154.819 54.338 154.819 51.3431V40.4819C154.819 34.4732 149.954 29.6017 143.952 29.6017V51.3526C143.958 60.3563 151.25 67.6653 160.245 67.6653C163.238 67.6653 165.663 70.0935 165.663 73.0903C165.663 76.0871 163.238 78.5152 160.245 78.5152C157.252 78.5152 154.842 76.0984 154.828 73.1149H143.971C143.984 82.1034 151.265 89.3859 160.245 89.3859C169.224 89.3859 176.52 82.0901 176.52 73.0903C176.52 68.9164 174.951 65.1121 172.374 62.229C174.959 59.3441 176.534 55.5322 176.536 51.3526V29.6017H176.537Z" fill="#E7DED3"/>
<path d="M179.272 38.8442C179.132 44.2085 183.434 48.6003 188.759 48.6003C183.895 48.6003 179.888 52.2663 179.337 56.988C179.301 57.2912 179.293 57.5964 179.291 57.9016C179.286 59.0939 179.269 67.6445 179.269 67.6445H190.133V60.0151C190.132 57.8428 191.89 56.0819 194.06 56.0819L206.424 56.0895V45.8936H192.954C191.497 45.8936 190.217 44.7923 190.13 43.3346C190.035 41.7519 191.288 40.4383 192.848 40.4383H211.807V29.596H188.969C183.791 29.596 179.407 33.6619 179.27 38.8442H179.272Z" fill="#E7DED3"/>
<path d="M283.657 45.9144C283.657 36.9051 276.362 29.6017 267.364 29.6017C258.366 29.6017 251.071 36.9051 251.071 45.9144V67.6559H261.938V50.8276C258.301 49.1008 255.827 46.2973 255.827 46.2973C255.827 46.2973 260.993 40.4421 267.366 40.4421C273.738 40.4421 278.905 46.2973 278.905 46.2973C278.905 46.2973 276.428 49.1027 272.79 50.8295L272.794 67.6559H283.66L283.657 45.9144Z" fill="#E7DED3"/>
<path d="M141.015 56.533C140.268 52.0331 136.364 48.6023 131.657 48.6023C136.9 48.6023 141.148 44.3487 141.148 39.1001C141.148 33.8514 136.9 29.5979 131.657 29.5979L92.2983 29.6017C83.3095 29.6017 76.0227 36.8975 76.0227 45.8974C76.0227 45.9049 76.017 51.2199 76.017 51.2199C76.017 57.6135 79.6917 63.2128 85.0418 65.9253C85.1327 65.9727 85.1819 66.0049 85.2766 66.0447C87.0372 66.9659 88.2337 66.856 89.7312 66.6721C90.9409 65.7698 91.844 64.3975 92.482 62.5153C93.0764 64.407 93.9454 65.7983 95.1305 66.7271C96.6224 66.9375 98.2259 66.5982 100.002 65.7149C99.0911 67.4834 98.7314 69.0889 98.9226 70.5882C99.8294 71.7957 101.206 72.6941 103.089 73.3234C101.189 73.9338 99.7972 74.819 98.8752 76.0245C98.6481 77.5258 98.9794 79.1445 99.8616 80.9377C98.0952 80.0165 96.4898 79.6487 94.9885 79.8383C93.7712 80.7386 92.8625 82.1129 92.2188 83.997C91.6244 82.0977 90.7554 80.7007 89.5627 79.7681C88.0671 79.5407 86.4541 79.8686 84.667 80.7443C85.5908 78.9815 85.9619 77.3779 85.7782 75.8748C84.8828 74.6617 83.5178 73.7537 81.6436 73.1073H76C76.0133 82.0958 83.3058 89.3784 92.3021 89.3784C101.298 89.3784 108.606 82.0826 108.606 73.0827C108.606 68.8766 107.012 65.0439 104.394 62.1532C107.006 59.2607 108.599 55.4242 108.599 51.218V45.8936H97.7318V51.218C97.7318 54.2129 95.2971 56.6506 92.3059 56.6506C89.3147 56.6506 86.8801 54.2129 86.8801 51.218V45.8955C86.8782 42.9025 89.2996 40.4743 92.2889 40.4705L127.564 40.4383C129.128 40.4383 130.385 41.7576 130.283 43.346C130.19 44.7961 128.922 45.8917 127.472 45.8917H113.988V56.0876L126.353 56.08C128.522 56.08 130.281 57.8409 130.281 60.0132V67.6388H141.144L141.121 58.0362C141.121 57.532 141.095 57.0259 141.014 56.5274L141.015 56.533Z" fill="#E7DED3"/>
<path d="M95.3051 76.0283C96.939 74.3924 96.939 71.74 95.3051 70.1041C93.6712 68.4681 91.0221 68.4681 89.3882 70.1041C87.7542 71.74 87.7542 74.3924 89.3882 76.0283C91.0221 77.6642 93.6712 77.6642 95.3051 76.0283Z" fill="#EA7542"/>
<path d="M267.366 50.0902C269.676 50.0902 271.549 48.2147 271.549 45.9011C271.549 43.5876 269.676 41.7121 267.366 41.7121C265.055 41.7121 263.182 43.5876 263.182 45.9011C263.182 48.2147 265.055 50.0902 267.366 50.0902Z" fill="#2488C1"/>
<rect width="360" height="118" fill="url(#paint0_linear_1305_8834)"/>
<defs>
<linearGradient id="paint0_linear_1305_8834" x1="180" y1="0" x2="180" y2="118" gradientUnits="userSpaceOnUse">
<stop offset="0.496745" stop-opacity="0"/>
<stop offset="1"/>
</linearGradient>
</defs>
</svg>
