<?xml version="1.0" encoding="UTF-8"?>
<svg version="1.1" width="56px" height="56px" viewBox="0 0 56.0 56.0"
    xmlns="http://www.w3.org/2000/svg"
    xmlns:xlink="http://www.w3.org/1999/xlink">
    <rect x="0px" y="0px" width="56px" height="56px" fill="#000000"></rect>
    <defs>
        <clipPath id="i0">
            <path d="M42.3246313,0 C49.8773617,0 55.9999374,6.12257574 55.9999374,13.6753061 L55.9999374,42.3243811 C55.9999374,49.8771114 49.8773617,56 42.3246313,56 L13.6754938,56 C6.12270087,56 0,49.8771114 0,42.3243811 L0,13.6753061 C0,6.12257574 6.12270087,0 13.6754938,0 L42.3246313,0 Z"></path>
        </clipPath>
        <clipPath id="i1">
            <path d="M18.497073,0 L18.6315801,0.406023773 C19.6873045,3.59040129 21.1740772,5.8782733 23.1760434,7.39726517 C25.6697426,7.72946644 28.3379882,7.14952185 31.3284252,5.62834033 L31.71005,5.43439986 L31.5173608,5.81633747 C30.001497,8.81897399 29.4315622,11.4941013 29.7753374,13.9928054 C31.2943293,16.0029046 33.5856421,17.4949951 36.7784655,18.5525963 L37.183238,18.6867906 C37.183238,18.6867906 28.8594378,28.1076057 18.5915408,28.1076057 C10.3238834,28.1076057 3.31676068,21.9997269 0.900462708,19.6200339 L0.681070608,19.4017096 C0.237256838,18.9553212 0,18.6867906 0,18.6867906 L0.34524533,18.5716775 C3.52383591,17.5150147 5.80692198,16.0288676 7.32503798,14.0290911 C7.64507105,11.5372687 7.05805702,8.87527929 5.53118241,5.89266244 L5.33599071,5.51166324 L5.71864778,5.70341407 C8.71715524,7.20551434 11.3879033,7.76919296 13.8750335,7.42541782 C15.863549,5.89266244 17.3324917,3.59634462 18.3653812,0.407275002 L18.497073,0 Z"></path>
        </clipPath>
        <clipPath id="i2">
            <path d="M2.66095575,1.40925687 C5.64200857,-0.881117601 9.91558083,-0.32056706 12.2059553,2.66079857 C14.496017,5.64216419 13.9357792,9.91542365 10.9544136,12.2061109 C7.97304798,14.4961726 3.69947572,13.9356221 1.40910125,10.9545692 C-0.880960419,7.97320361 -0.320722686,3.69963135 2.66095575,1.40925687 Z"></path>
        </clipPath>
    </defs>
    <rect x="0px" y="0px" width="56px" height="56px" fill="#000000"></rect>
    <g clip-path="url(#i0)">
        <polygon points="0,0 55.9999374,0 55.9999374,56 0,56 0,0" stroke="none" fill="#000000"></polygon>
    </g>
    <g transform="translate(9.408396639556702 12.18884618822058)">
        <g clip-path="url(#i1)">
            <polygon points="0,0 37.183238,0 37.183238,28.1076057 0,28.1076057 0,0" stroke="none" fill="#E2DDD3"></polygon>
        </g>
    </g>
    <g transform="translate(21.19240916367899 22.64092634140841)">
        <g clip-path="url(#i2)">
            <polygon points="1.77635684e-15,-8.8817842e-16 13.6150789,-8.8817842e-16 13.6150789,13.61514 1.77635684e-15,13.61514 1.77635684e-15,-8.8817842e-16" stroke="none" fill="#FD6B31"></polygon>
        </g>
    </g>
</svg>