<?xml version="1.0" encoding="UTF-8"?>
<svg width="56px" height="56px" viewBox="0 0 56 56" version="1.1" xmlns="http://www.w3.org/2000/svg" xmlns:xlink="http://www.w3.org/1999/xlink">
    <title>Logos / Games / Revv Racing</title>
    <g id="Logos-/-Games-/-Revv-Racing" stroke="none" stroke-width="1" fill="none" fill-rule="evenodd">
        <ellipse id="Oval" fill="#FFFFFF" fill-rule="nonzero" cx="27.9990144" cy="27.9991707" rx="27.9990144" ry="27.9991707"></ellipse>
        <g id="Game-Icon-REVV">
            <rect id="Rectangle" fill="#000000" x="0" y="0" width="56" height="56"></rect>
            <g id="revv_racing_logo_vertical_red_white" transform="translate(8.842105, 18.666667)" fill-rule="nonzero">
                <g id="Group" transform="translate(9.248639, 2.526316)" fill="#FFFFFF">
                    <path d="M4.96664278,0 L0.322852952,0 C0.14466635,0 0,0.144046376 0,0.321469351 L0,7.25747802 C0,7.43490099 0.14466635,7.57894737 0.322852952,7.57894737 L4.96699563,7.57894737 C5.14518223,7.57894737 5.28984858,7.43490099 5.28984858,7.25747802 L5.28984858,6.33558121 C5.28984858,6.15815824 5.14518223,6.01411186 4.96699563,6.01411186 L1.57192339,6.01411186 L1.57192339,4.3452819 L4.96699563,4.3452819 C5.14518223,4.3452819 5.28984858,4.20123552 5.28984858,4.02381254 L5.28984858,3.09488909 C5.28984858,2.91746611 5.14518223,2.77341974 4.96699563,2.77341974 L1.57192339,2.77341974 L1.57192339,1.57256483 L4.96699563,1.57256483 C5.14518223,1.57256483 5.28984858,1.42851845 5.28984858,1.25109547 L5.28984858,0.321820684 C5.28949573,0.144046376 5.14518223,0 4.96664278,0 Z" id="Path"></path>
                    <path d="M11.5814234,0 L10.5627606,0 C10.430091,0 10.3111823,0.0808065036 10.2628426,0.203421589 L8.79641976,3.90049479 L7.3303498,0.203421589 C7.28165723,0.0804551709 7.16274854,0 7.03007891,0 L6.0114161,0 C5.9041513,0 5.80429623,0.0530512262 5.74431262,0.141235715 C5.68432902,0.229420204 5.67197945,0.341846643 5.71185091,0.440571111 L8.49650172,7.37657978 C8.5451943,7.49884353 8.66410298,7.57894737 8.79606692,7.57894737 C8.92803086,7.57894737 9.04658669,7.49884353 9.09563212,7.37657978 L11.8806358,0.440571111 C11.9205072,0.341846643 11.9085105,0.229420204 11.8481741,0.141235715 C11.7885433,0.0530512262 11.6883354,0 11.5814234,0 Z" id="Path"></path>
                    <path d="M18.441784,0.141235715 C18.3818004,0.0530512262 18.2815925,0 18.1746805,0 L17.1560177,0 C17.0233481,0 16.9044394,0.0808065036 16.8557468,0.203421589 L15.3896769,3.90049479 L13.9232541,0.203421589 C13.8745615,0.0808065036 13.7556528,0 13.6229832,0 L12.6043204,0 C12.4970556,0 12.3972005,0.0530512262 12.3372169,0.141235715 C12.2772333,0.229420204 12.2648837,0.341846643 12.3047552,0.440571111 L15.0897588,7.37657978 C15.1388042,7.49884353 15.2573601,7.57894737 15.389324,7.57894737 C15.521288,7.57894737 15.6401966,7.49884353 15.6888892,7.37657978 L18.47354,0.440571111 C18.5141172,0.341846643 18.5021205,0.229771536 18.441784,0.141235715 Z" id="Path"></path>
                </g>
                <g id="Group">
                    <path d="M7.73103711,7.36504071 L5.97608748,5.16725935 C6.2429773,5.06846446 6.51477705,4.92594069 6.76483283,4.72122472 C7.19059399,4.37301323 7.69771972,3.71772779 7.69771972,2.5700875 C7.69771972,1.61096729 7.25161742,1.02661983 6.87741053,0.708856596 C6.01010629,-0.0267604228 4.86609236,0.000124743477 4.49925037,0.000124743477 L1.01214721,0.000124743477 C0.456974295,0.000124743477 0.00245496551,0.420893791 0.00245496551,0.933655456 C0.00245496551,0.954062269 0,0.979327847 0,0.999410742 L0,1.82766821 L2.43497508,1.82766821 L3.04135156,1.82766821 L4.19062613,1.82766821 L4.5416862,1.82766821 L4.92466082,1.82766821 C5.36374894,1.82766821 5.74777569,2.19887786 5.74777569,2.60409886 L5.74777569,2.7809579 C5.74777569,3.1861789 5.36339823,3.48094398 4.92466082,3.48094398 L4.5416862,3.48094398 L4.19062613,3.48094398 L4.14959314,3.48094398 C3.77012561,3.48094398 3.42327405,3.69537747 3.25212789,4.00828194 C3.08098172,4.3211864 3.11535124,4.70405708 3.34015594,4.98586545 L6.11251342,8.46214984 C6.30961208,8.7089751 6.6140278,8.84210526 6.92230133,8.84210526 C7.12957056,8.84210526 7.33894405,8.78444792 7.51815653,8.66200704 C7.96566167,8.35784835 8.06070391,7.77771181 7.73103711,7.36504071 Z" id="Path" fill="#FF0000"></path>
                    <path d="M0,3.48159181 L0,7.83310173 L0.0227961083,7.83310173 C0.094691527,8.44239086 0.603220098,8.8372465 1.22011786,8.8372465 C1.83701562,8.8372465 2.34554419,8.40319683 2.41743961,7.85091721 L2.43041586,3.48159181 L0,3.48159181 L0,3.48159181 Z" id="Path" fill="#FFFFFF"></path>
                </g>
                <g id="Group" transform="translate(0.000000, 10.105263)" fill="#FFFFFF">
                    <path d="M5.41962857,2.64125489 C5.41962857,1.92287541 5.15103305,1.29939598 4.62179504,0.788610372 C4.09761805,0.282709327 3.45414561,0.0262698315 2.70981429,0.0262698315 L0.330773755,0.0262698315 C0.148215563,0.0262698315 0,0.169317713 0,0.345510836 L0,7.2334408 C0,7.40963392 0.148215563,7.5526818 0.330773755,7.5526818 L1.27935336,7.5526818 C1.46191155,7.5526818 1.61012711,7.40963392 1.61012711,7.2334408 L1.61012711,5.30578336 L1.73701409,5.30578336 L3.59476964,7.43859239 C3.65767088,7.51081413 3.75021523,7.5526818 3.8478206,7.5526818 L5.08849331,7.5526818 C5.21899531,7.5526818 5.33684476,7.47871558 5.39034696,7.36427727 C5.44384916,7.24983897 5.42215908,7.11551352 5.33576025,7.02131125 L3.5821171,5.12017001 C4.01555724,4.98200669 4.39694119,4.74056978 4.72120792,4.39760376 C5.18465268,3.90251853 5.41962857,3.31148655 5.41962857,2.64125489 Z M3.80190993,2.64125489 C3.80190993,2.93607309 3.69779754,3.18030118 3.48306572,3.38754616 C3.26869541,3.59479114 3.01564445,3.69527355 2.70981429,3.69527355 L1.61048861,3.69527355 L1.61048861,1.58025828 L2.70981429,1.58025828 C3.01419844,1.58025828 3.2665264,1.68248519 3.48306572,1.89496362 C3.69779754,2.1022086 3.80190993,2.3464367 3.80190993,2.64125489 Z" id="Shape"></path>
                    <path d="M9.15863726,0.176295659 L5.81077306,7.10644219 C5.71461369,7.30531363 5.86499826,7.53314355 6.09238262,7.53314355 L7.19640781,7.53314355 C7.31931828,7.53314355 7.4306607,7.4633641 7.48054789,7.35485705 L8.23789327,5.7108531 L10.6433234,5.7108531 L11.4003073,7.35485705 C11.4501945,7.4633641 11.5615369,7.53314355 11.6844473,7.53314355 L12.7957026,7.53314355 C13.0230869,7.53314355 13.173833,7.30496474 13.0773121,7.10609329 L9.7218564,0.175946761 C9.61015248,-0.0546743358 9.27034119,-0.0546743358 9.15863726,0.176295659 Z M9.91923615,4.14255986 L8.96161901,4.14255986 L9.44060833,3.10179929 L9.91923615,4.14255986 Z" id="Shape"></path>
                    <path d="M17.3484508,5.96485031 C16.7639031,5.96485031 16.2726228,5.78551711 15.8503892,5.41777939 C15.3442872,4.97712213 15.0648467,4.3281732 15.0966588,3.67119964 C15.1234099,3.12029085 15.3388647,2.65625747 15.7535068,2.2560723 C16.1974305,1.82797535 16.719077,1.61968368 17.3488123,1.61968368 C17.7844215,1.61968368 18.174843,1.72679514 18.5406824,1.94555373 C18.8960382,2.16221894 19.1617417,2.44203455 19.3518915,2.80104984 L19.4469663,2.98108083 L20.7324652,2.98108083 C20.945028,2.98108083 21.0936051,2.77802262 21.0227508,2.58473353 L21.0064832,2.54042358 C20.7375262,1.808786 20.2679359,1.20589151 19.6114494,0.749533878 C18.9423104,0.281662635 18.1809885,0.0444124896 17.3491739,0.0444124896 C16.2805758,0.0444124896 15.3573013,0.41284801 14.6032094,1.14029882 C13.8509251,1.87158751 13.4695411,2.76267114 13.4695411,3.78877802 C13.4695411,4.82011836 13.8512866,5.71155089 14.6042939,6.43795501 C15.3573013,7.16470803 16.2809373,7.53314355 17.3495354,7.53314355 L20.9215304,7.53314355 C21.0914361,7.53314355 21.2295296,7.40021369 21.2295296,7.23588308 L21.2295296,6.26176189 C21.2295296,6.09778017 21.0917976,5.96450141 20.9215304,5.96450141 L17.3484508,5.96450141 L17.3484508,5.96485031 Z" id="Path"></path>
                    <path d="M21.5895849,0.342719658 L21.5895849,7.23518528 C21.5895849,7.39986479 21.72804,7.53349245 21.8986686,7.53349245 L22.9058114,7.53349245 C23.0764401,7.53349245 23.2148951,7.39986479 23.2148951,7.23518528 L23.2148951,0.342719658 C23.2148951,0.178040145 23.0764401,0.0444124896 22.9058114,0.0444124896 L21.8986686,0.0444124896 C21.72804,0.0444124896 21.5895849,0.178040145 21.5895849,0.342719658 Z" id="Path"></path>
                    <path d="M28.7585187,0.34376635 L28.7585187,4.12930176 L24.5716098,0.088373546 C24.3760375,-0.100379879 24.0420103,0.0332477769 24.0420103,0.300154191 L24.0420103,7.23413859 C24.0420103,7.3995159 24.1808268,7.53349245 24.3521784,7.53349245 L25.3567907,7.53349245 C25.5281424,7.53349245 25.6669589,7.3995159 25.6669589,7.23413859 L25.6669589,3.38126601 L29.8524218,7.4888336 C30.0469095,7.6800293 30.3838288,7.54675055 30.3838288,7.27879744 L30.3838288,0.34376635 C30.3838288,0.178389042 30.2450123,0.0444124896 30.0736606,0.0444124896 L29.0686868,0.0444124896 C28.8973352,0.0444124896 28.7585187,0.178389042 28.7585187,0.34376635 Z" id="Path"></path>
                    <path d="M34.513982,5.41289483 C34.513982,5.57757434 34.652437,5.71120199 34.8230657,5.71120199 L36.5900844,5.71120199 L36.5900844,5.96519921 L34.6246014,5.96519921 C34.0404152,5.96519921 33.5491348,5.78621491 33.1269012,5.41847718 C32.6207993,4.97747103 32.3406358,4.3281732 32.3728094,3.67085074 C32.3995605,3.12029085 32.6150153,2.65660637 33.0292959,2.2564212 C33.472858,1.82832425 33.994866,1.62003257 34.6246014,1.62003257 C35.0602106,1.62003257 35.4506321,1.72714404 35.8164714,1.94590263 C36.1718273,2.16256783 36.4375308,2.44238345 36.6276805,2.80139874 L36.7227554,2.98142973 L38.0064468,2.98142973 C38.2197326,2.98142973 38.3690326,2.77767372 38.2978169,2.58333794 L38.2822723,2.54042358 C38.0133153,1.808786 37.543725,1.20589151 36.8872385,0.749533878 C36.2180995,0.281662635 35.4567776,0.0444124896 34.6249629,0.0444124896 C33.5563649,0.0444124896 32.6330904,0.41284801 31.8789985,1.14029882 C31.1267141,1.87158751 30.7453302,2.76267114 30.7453302,3.78877802 C30.7453302,4.82011836 31.1270756,5.71155089 31.880083,6.43795501 C32.6330904,7.16470803 33.5567264,7.53314355 34.6253244,7.53314355 L37.9934327,7.53314355 C38.1640614,7.53314355 38.3025164,7.3995159 38.3025164,7.23483638 L38.3025164,4.44086702 C38.3025164,4.27618751 38.1640614,4.14255986 37.9934327,4.14255986 L34.8234272,4.14255986 C34.6527985,4.14255986 34.5143435,4.27618751 34.5143435,4.44086702 L34.5143435,5.41289483 L34.513982,5.41289483 Z" id="Path"></path>
                </g>
            </g>
        </g>
    </g>
</svg>