<?xml version="1.0" encoding="UTF-8"?><svg version="1.1" width="111px" height="16px" viewBox="0 0 111.0 16.0" xmlns="http://www.w3.org/2000/svg" xmlns:xlink="http://www.w3.org/1999/xlink"><defs><clipPath id="i0"><path d="M1440,0 L1440,796 L0,796 L0,0 L1440,0 Z"></path></clipPath><clipPath id="i1"><path d="M4.37020018,0 C5.57474414,0 6.60434242,0.418722422 7.45842145,1.27280144 C8.31250047,2.12688047 8.74613629,3.16909778 8.74613629,4.37020018 C8.75042232,6.24264354 7.5571773,7.91041695 5.78181098,8.5126842 L8.61191568,11.6915331 C8.75190299,11.8484982 8.78659389,12.0730662 8.70049722,12.2649565 C8.61440055,12.4568468 8.42358892,12.5802371 8.21326899,12.5800276 L6.21257884,12.5800276 C6.05498391,12.5800648 5.90545576,12.510341 5.80418108,12.389595 L2.80314586,8.82586563 L2.59837339,8.82586563 L2.59837339,12.0488811 C2.59837339,12.3434924 2.35954376,12.582322 2.06493249,12.582322 L0.533440894,12.582322 C0.238829623,12.582322 0,12.3434924 0,12.0488811 L0,0.534014486 C0,0.239310286 0.238736864,0.000316545865 0.533440894,0 Z M4.37020018,2.59607902 L2.59837339,2.59607902 L2.59837339,6.13286793 L4.37020018,6.13286793 C4.83854813,6.13499271 5.2883662,5.95004764 5.619757,5.61908763 C5.9511478,5.28812763 6.13667784,4.83855052 6.13515331,4.37020018 C6.13068605,3.39574456 5.34462127,2.60456383 4.37020018,2.59607902 Z"></path></clipPath><clipPath id="i2"><path d="M8.21212181,0 C8.35414968,0 8.49032721,0.0565756101 8.59054057,0.157219531 C8.69075393,0.257863451 8.74674651,0.394282296 8.74614123,0.536308856 L8.74614123,2.0792723 C8.74614123,2.22084906 8.689856,2.35661884 8.58969233,2.45667492 C8.48952867,2.55673099 8.35369848,2.61286543 8.21212181,2.6127132 L2.59894698,2.6127132 L2.59894698,4.60709383 L8.21212181,4.60709383 C8.35369848,4.6069416 8.48952867,4.66307603 8.58969233,4.76313211 C8.689856,4.86318819 8.74614123,4.99895796 8.74614123,5.14053472 L8.74614123,6.68349817 C8.74614123,6.82507493 8.689856,6.9608447 8.58969233,7.06090078 C8.48952867,7.16095686 8.35369848,7.2170913 8.21212181,7.21693906 L2.59894698,7.21693906 L2.59894698,9.98853734 L8.21212181,9.98853734 C8.50704986,9.98853734 8.74614123,10.2276238 8.74614123,10.5225518 L8.74614123,12.0534698 C8.74614123,12.1950466 8.689856,12.3308164 8.58969233,12.4308724 C8.48952867,12.5309285 8.35369848,12.587063 8.21212181,12.586911 L0.534014486,12.586911 C0.392437809,12.587063 0.256607627,12.5309285 0.156443961,12.4308724 C0.0562802962,12.3308164 0,12.1950466 0,12.0534698 L0,0.534014486 C0,0.392385039 0.056262079,0.256556365 0.156409222,0.156409222 C0.256556365,0.056262079 0.392385039,0 0.534014486,0 Z"></path></clipPath><clipPath id="i3"><path d="M2.21794633,0 C2.43859251,0.00107043298 2.63581157,0.137869777 2.71410372,0.344161346 L5.13810503,6.48159959 L7.56382711,0.33785183 C7.64402076,0.133936598 7.84086711,0 8.05998451,0 L9.74290449,0 C9.92086101,-0.000831778966 10.0875159,0.0871273465 10.187237,0.234521125 C10.2869581,0.381914903 10.3066111,0.569329975 10.2396355,0.73420415 L5.63368883,12.2490708 C5.55243681,12.4515023 5.35623443,12.5841677 5.13810503,12.5841677 C4.91997563,12.5841677 4.72377325,12.4515023 4.64252123,12.2490708 L0.0382953633,0.731909781 C-0.0276128231,0.567474664 -0.00758931568,0.381047198 0.0917354955,0.234359167 C0.191060307,0.0876711355 0.356727318,-0.000138785195 0.533879162,0 Z"></path></clipPath><clipPath id="i4"><path d="M2.2185943,0 C2.43924048,0.00106474726 2.63645954,0.137864091 2.71475169,0.34415566 L5.13932659,6.4815939 L7.56160712,0.340140514 C7.64193203,0.136330133 7.83869658,0.00234825661 8.05776451,0.00229461402 L9.74355246,0.00229461402 C9.92063194,0.00216113828 10.0861838,0.0900971525 10.1852186,0.236893889 C10.28434,0.383629129 10.3039098,0.570080255 10.2374155,0.734198464 L5.63491039,12.2513594 C5.55365837,12.453791 5.35745599,12.5864564 5.13932659,12.5864564 C4.92119719,12.5864564 4.72499481,12.453791 4.64374279,12.2513594 L0.0389433341,0.734198464 C-0.0276490776,0.569509242 -0.00798680864,0.382487168 0.0913997125,0.235247878 C0.190786234,0.0880085873 0.356884062,-0.000169483518 0.534527132,0 Z"></path></clipPath><clipPath id="i5"><path d="M7.79476529,0.000601815297 C8.58642156,0.00848820547 10.2204751,0.111520077 11.4965117,1.28105195 C12.1223009,1.8557915 12.867971,2.91349581 12.867971,4.64975988 C12.867971,6.72616422 12.0202015,7.91177963 11.308947,8.54273122 C10.9188985,8.8856422 10.4725944,9.15866388 9.98968453,9.34977567 L12.9230359,13.329933 C13.2778632,13.8119986 13.3479462,14.4478036 13.1068854,14.9966995 C12.8658246,15.5455953 12.3502427,15.9241915 11.7543546,15.9898746 C11.1584665,16.0555577 10.5728016,15.7983489 10.2179743,15.3151362 L5.58392162,9.0245488 C5.20734472,8.50883012 5.15045535,7.82593631 5.43650838,7.25501637 C5.72215737,6.68888072 6.30205925,6.30113228 6.9364524,6.30113228 L8.23219754,6.30113228 C8.96639576,6.30113228 9.6088192,5.76769139 9.6088192,5.03406676 L9.6088192,4.71342863 C9.6088192,3.979804 8.96582217,3.30812735 8.23219754,3.30812735 L0,3.30812735 L0,1.80875692 L0.00401514651,1.69002331 C0.00684427009,0.758616155 0.760693675,0.0039983006 1.69209746,0.000220215772 Z"></path></clipPath><clipPath id="i6"><path d="M4.06218109,0 L4.04038458,7.90754426 C3.91889337,8.92209004 3.06090178,9.6873723 2.03912084,9.69256368 C1.00780177,9.69256368 0.157737899,8.9778676 0.0378570957,7.87542309 L0,7.87542309 L0,0 L4.06218109,0 Z"></path></clipPath><clipPath id="i7"><path d="M5.90476891,0 C6.10005666,0 6.27768419,0.113043495 6.36009742,0.29008976 L11.7753829,11.8766554 C11.8479195,12.0321037 11.8360404,12.213832 11.743885,12.3585148 C11.6517296,12.5031976 11.4920635,12.5907792 11.3205241,12.5907792 L9.52690083,12.5907792 C9.3284697,12.591231 9.14849012,12.4744692 9.06802695,12.2930835 L7.84627522,9.54385529 L3.96477573,9.54385529 L2.74245041,12.2930835 C2.66186983,12.474369 2.48196399,12.5910829 2.28357652,12.5907792 L0.501425063,12.5907792 C0.330023665,12.5907792 0.170483905,12.5032781 0.0784326134,12.3586924 C-0.0136186787,12.2141068 -0.0254213236,12.0325136 0.0471399143,11.877229 L5.44980634,0.290663353 C5.53199639,0.113513368 5.70948116,0 5.90476891,0 Z M5.90466509,5.18455336 L5.13203618,6.92483258 L6.67729399,6.92483258 L5.90466509,5.18455336 Z"></path></clipPath><clipPath id="i8"><path d="M6.26133419,0.000167219105 C7.5734565,-0.0095445774 8.85375114,0.40401171 9.91224956,1.17947311 C10.9553608,1.91982352 11.7421967,2.96646567 12.1635996,4.17419882 L12.1899848,4.24819223 C12.2438328,4.40029941 12.2204428,4.56908455 12.1272609,4.70081659 C12.034079,4.83254864 11.8827172,4.91081166 11.7213599,4.91069141 L9.64724989,4.91069141 L9.49352714,4.61012901 C8.876983,3.39285289 7.62582879,2.6281723 6.26133419,2.63467692 C5.24492853,2.63467692 4.40289495,2.98284749 3.68647809,3.69869075 C3.0176694,4.36749944 2.66949884,5.14299631 2.627053,6.06418564 C2.57808241,7.17023527 3.0239655,8.24069103 3.8436424,8.98491793 C4.52507012,9.6032505 5.31777476,9.90266571 6.26133419,9.90266571 L12.0253638,9.89979775 C12.1571051,9.89979775 12.2834505,9.95213175 12.3766057,10.0452869 C12.4697608,10.138442 12.5220948,10.2647875 12.5220948,10.3965287 L12.5220948,12.025531 C12.5220948,12.1572723 12.4697608,12.2836177 12.3766057,12.3767729 C12.2834505,12.469928 12.1571051,12.522262 12.0253638,12.522262 L6.26133419,12.522262 C4.53711556,12.522262 3.04577543,11.9090918 1.83090681,10.6913552 C0.616038194,9.47361862 0,7.97768975 0,6.26150141 C0,4.54531307 0.613170232,3.04881061 1.82975963,1.83279481 C3.04634902,0.616779005 4.53711556,0.000167219105 6.26133419,0.000167219105 Z"></path></clipPath><clipPath id="i9"><path d="M1.31754165,0 C2.04519981,-1.33668635e-16 2.6350833,0.589883489 2.6350833,1.31754165 L2.6350833,11.2659275 C2.6350833,11.9935857 2.04519981,12.5834692 1.31754165,12.5834692 C0.589883489,12.5834692 8.91124236e-17,11.9935857 0,11.2659275 L0,1.31754165 C-8.91124236e-17,0.589883489 0.589883489,1.33668635e-16 1.31754165,0 Z"></path></clipPath><clipPath id="i10"><path d="M0.310884591,0.0381623608 C0.499574878,-0.0398296245 0.716690305,0.00396627236 0.860391034,0.149007213 L7.65000379,6.93919356 L7.65000379,0.57862789 C7.65000307,0.301253682 7.87452362,0.0762199437 8.1518971,0.0755873913 L9.781473,0.0755873913 C9.9149343,0.0754349511 10.0429732,0.128384755 10.1373447,0.222756213 C10.2317161,0.317127672 10.2846659,0.445166581 10.2845138,0.57862789 L10.2845138,12.2305831 C10.2839912,12.4342333 10.1607331,12.6174766 9.97230471,12.6947322 C9.78387637,12.7719878 9.56745825,12.7280118 9.42412496,12.5833424 L2.63508579,5.6824527 L2.63508579,12.1560161 C2.63508579,12.4338377 2.40986689,12.6590566 2.13204529,12.6590566 L0.503042994,12.6590566 C0.225221398,12.6590566 0,12.4338377 0,12.1560161 L0,0.504634476 C-0.000638284586,0.300462089 0.122194304,0.116154346 0.310884591,0.0381623608 Z"></path></clipPath><clipPath id="i11"><path d="M6.29230818,0.000188186328 C7.61152453,-0.0101440469 8.8989015,0.405236179 9.96329928,1.18465641 C11.011581,1.92877845 11.8023974,2.98059441 12.2261211,4.19429552 L12.2513592,4.26599456 C12.3057634,4.41947744 12.2822308,4.58982242 12.1882522,4.72280673 C12.0942735,4.85579104 11.9415589,4.93484441 11.7787191,4.93480325 L9.69715242,4.93480325 L9.54285608,4.63137289 C8.92315043,3.40814716 7.66583365,2.63972524 6.29460255,2.64616974 C5.27303456,2.64616974 4.42698583,2.99548749 3.70712742,3.7153459 C3.03545076,4.38759614 2.68555943,5.16653456 2.64254,6.09173904 C2.5936327,7.20373389 3.04175126,8.27989106 3.86543891,9.02853192 C4.55030818,9.6457173 5.34702797,9.94627969 6.29460255,9.94627969 L9.4814817,9.94627969 L9.4814817,9.52010057 L6.6135199,9.52010057 C6.33664866,9.52010057 6.11220018,9.29565209 6.11220018,9.01878085 L6.11220018,7.3857634 C6.11220018,7.25280515 6.16501764,7.12529251 6.25903333,7.03127683 C6.35304901,6.93726114 6.48056164,6.88444368 6.6135199,6.88444368 L11.7540546,6.88444368 C12.0309259,6.88444368 12.2553743,7.10889217 12.2553743,7.3857634 L12.2553743,12.0823376 C12.2553743,12.2152959 12.2025569,12.3428085 12.1085412,12.4368242 C12.0145255,12.5308399 11.8870129,12.5836574 11.7540546,12.5836574 L6.29230818,12.5836574 C4.55948566,12.5836574 3.06068883,11.9647512 1.84008429,10.7435731 C0.619479748,9.52239494 0,8.02474529 0,6.29192277 C0,4.56770414 0.616038194,3.06374498 1.8389371,1.84141966 C3.06183601,0.619094342 4.55948566,0.000188186328 6.29230818,0.000188186328 Z"></path></clipPath></defs><g transform="translate(-556.0 -289.0)"><g clip-path="url(#i0)"><g transform="translate(556.0 289.0)"><g transform="translate(47.826704495539886 2.8681820113576126)"><g clip-path="url(#i1)"><polygon points="0,0 8.74729581,0 8.74729581,12.582322 0,12.582322 0,0" stroke="none" fill="#FFFFFF"></polygon></g></g><g transform="translate(14.08169241632391 3.3844151345629694)"><g clip-path="url(#i2)"><polygon points="0,0 8.74614608,0 8.74614608,12.5869113 0,12.5869113 0,0" stroke="none" fill="#FFFFFF"></polygon></g></g><g transform="translate(23.48759524590887 3.3844092042663414)"><g clip-path="url(#i3)"><polygon points="-1.15185639e-15,-5.84699925e-06 10.2788589,-5.84699925e-06 10.2788589,12.5841677 -1.15185639e-15,12.5841677 -1.15185639e-15,-5.84699925e-06" stroke="none" fill="#FFFFFF"></polygon></g></g><g transform="translate(34.38807006007114 3.384414889983998)"><g clip-path="url(#i4)"><polygon points="1.20736754e-15,-2.43875239e-07 10.2763302,-2.43875239e-07 10.2763302,12.5864564 1.20736754e-15,12.5864564 1.20736754e-15,-2.43875239e-07" stroke="none" fill="#FFFFFF"></polygon></g></g><g transform=""><g clip-path="url(#i5)"><polygon points="0,4.4408921e-16 13.2485318,4.4408921e-16 13.2485318,16 0,16 0,4.4408921e-16" stroke="none" fill="#FF0000"></polygon></g></g><g transform="translate(0.0 6.301132280673231)"><g clip-path="url(#i6)"><polygon points="0,0 4.06218109,0 4.06218109,9.69256368 0,9.69256368 0,0" stroke="none" fill="#FFFFFF"></polygon></g></g><g transform="translate(57.15665246810332 2.8264577424790787)"><g clip-path="url(#i7)"><polygon points="0,0 11.8224633,0 11.8224633,12.5907805 0,12.5907805 0,0" stroke="none" fill="#FFFFFF"></polygon></g></g><g transform="translate(69.56183975956276 2.8932528560534747)"><g clip-path="url(#i8)"><polygon points="0,-2.22044605e-16 12.5220948,-2.22044605e-16 12.5220948,12.522262 0,12.522262 0,-2.22044605e-16" stroke="none" fill="#FFFFFF"></polygon></g></g><g transform="translate(83.00455028783028 2.8647404572029105)"><g clip-path="url(#i9)"><polygon points="0,0 2.6350833,0 2.6350833,12.5834692 0,12.5834692 0,0" stroke="none" fill="#FFFFFF"></polygon></g></g><g transform="translate(86.97954284145274 2.7891530658894155)"><g clip-path="url(#i10)"><polygon points="-2.47571232e-06,-1.66533454e-16 10.2845141,-1.66533454e-16 10.2845141,12.7323487 -2.47571232e-06,12.7323487 -2.47571232e-06,-1.66533454e-16" stroke="none" fill="#FFFFFF"></polygon></g></g><g transform="translate(97.85141491121635 2.86627304795232)"><g clip-path="url(#i11)"><polygon points="0,0 12.2801688,0 12.2801688,12.5836574 0,12.5836574 0,0" stroke="none" fill="#FFFFFF"></polygon></g></g></g></g></g></svg>